<?xml version="1.0" encoding="utf-8"?>
<svg viewBox="97.6274 234.0024 127.0625 27.2577" xmlns="http://www.w3.org/2000/svg" xmlns:xlink="http://www.w3.org/1999/xlink" xmlns:bx="https://boxy-svg.com">
  <defs>
    <filter id="filter0_d_2164_2166" x="31.0008" y="1.27399" width="0.99596" height="1.00853" filterUnits="userSpaceOnUse" color-interpolation-filters="sRGB">
      <feFlood flood-opacity="0" result="BackgroundImageFix"/>
      <feColorMatrix in="SourceAlpha" type="matrix" values="0 0 0 0 0 0 0 0 0 0 0 0 0 0 0 0 0 0 127 0" result="hardAlpha"/>
      <feOffset/>
      <feGaussianBlur stdDeviation="0.170743"/>
      <feComposite in2="hardAlpha" operator="out"/>
      <feColorMatrix type="matrix" values="0 0 0 0 0.592157 0 0 0 0 0.392157 0 0 0 0 1 0 0 0 1 0"/>
      <feBlend mode="normal" in2="BackgroundImageFix" result="effect1_dropShadow_2164_2166"/>
      <feBlend mode="normal" in="SourceGraphic" in2="effect1_dropShadow_2164_2166" result="shape"/>
    </filter>
    <linearGradient id="paint1_linear_2164_2166" x1="31.3515" y1="1.76142" x2="31.6627" y2="1.7677" gradientUnits="userSpaceOnUse">
      <stop stop-color="#26A4FF"/>
      <stop offset="1" stop-color="#0D9AFF"/>
    </linearGradient>
    <filter id="filter1_d_2164_2166" x="4.39242" y="4.30758" width="2.58381" height="2.6164" filterUnits="userSpaceOnUse" color-interpolation-filters="sRGB">
      <feFlood flood-opacity="0" result="BackgroundImageFix"/>
      <feColorMatrix in="SourceAlpha" type="matrix" values="0 0 0 0 0 0 0 0 0 0 0 0 0 0 0 0 0 0 127 0" result="hardAlpha"/>
      <feOffset/>
      <feGaussianBlur stdDeviation="0.442949"/>
      <feComposite in2="hardAlpha" operator="out"/>
      <feColorMatrix type="matrix" values="0 0 0 0 0.592157 0 0 0 0 0.392157 0 0 0 0 1 0 0 0 1 0"/>
      <feBlend mode="normal" in2="BackgroundImageFix" result="effect1_dropShadow_2164_2166"/>
      <feBlend mode="normal" in="SourceGraphic" in2="effect1_dropShadow_2164_2166" result="shape"/>
    </filter>
    <linearGradient id="paint2_linear_2164_2166" x1="5.30238" y1="5.57208" x2="6.10973" y2="5.58843" gradientUnits="userSpaceOnUse">
      <stop stop-color="#26A4FF"/>
      <stop offset="1" stop-color="#0D9AFF"/>
    </linearGradient>
    <filter id="filter2_d_2164_2166" x="0.210293" y="16.6759" width="2.58381" height="2.6164" filterUnits="userSpaceOnUse" color-interpolation-filters="sRGB">
      <feFlood flood-opacity="0" result="BackgroundImageFix"/>
      <feColorMatrix in="SourceAlpha" type="matrix" values="0 0 0 0 0 0 0 0 0 0 0 0 0 0 0 0 0 0 127 0" result="hardAlpha"/>
      <feOffset/>
      <feGaussianBlur stdDeviation="0.442949"/>
      <feComposite in2="hardAlpha" operator="out"/>
      <feColorMatrix type="matrix" values="0 0 0 0 0.592157 0 0 0 0 0.392157 0 0 0 0 1 0 0 0 1 0"/>
      <feBlend mode="normal" in2="BackgroundImageFix" result="effect1_dropShadow_2164_2166"/>
      <feBlend mode="normal" in="SourceGraphic" in2="effect1_dropShadow_2164_2166" result="shape"/>
    </filter>
    <linearGradient id="paint3_linear_2164_2166" x1="1.12025" y1="17.9404" x2="1.92761" y2="17.9566" gradientUnits="userSpaceOnUse">
      <stop stop-color="#26A4FF"/>
      <stop offset="1" stop-color="#0D9AFF"/>
    </linearGradient>
    <filter id="filter3_d_2164_2166" x="24.2508" y="20.0711" width="2.58381" height="2.6164" filterUnits="userSpaceOnUse" color-interpolation-filters="sRGB">
      <feFlood flood-opacity="0" result="BackgroundImageFix"/>
      <feColorMatrix in="SourceAlpha" type="matrix" values="0 0 0 0 0 0 0 0 0 0 0 0 0 0 0 0 0 0 127 0" result="hardAlpha"/>
      <feOffset/>
      <feGaussianBlur stdDeviation="0.442949"/>
      <feComposite in2="hardAlpha" operator="out"/>
      <feColorMatrix type="matrix" values="0 0 0 0 0.592157 0 0 0 0 0.392157 0 0 0 0 1 0 0 0 1 0"/>
      <feBlend mode="normal" in2="BackgroundImageFix" result="effect1_dropShadow_2164_2166"/>
      <feBlend mode="normal" in="SourceGraphic" in2="effect1_dropShadow_2164_2166" result="shape"/>
    </filter>
    <linearGradient id="paint4_linear_2164_2166" x1="25.1609" y1="21.3356" x2="25.9682" y2="21.352" gradientUnits="userSpaceOnUse">
      <stop stop-color="#26A4FF"/>
      <stop offset="1" stop-color="#0D9AFF"/>
    </linearGradient>
    <filter id="filter4_d_2164_2166" x="6.02961" y="13.9844" width="0.99596" height="1.00853" filterUnits="userSpaceOnUse" color-interpolation-filters="sRGB">
      <feFlood flood-opacity="0" result="BackgroundImageFix"/>
      <feColorMatrix in="SourceAlpha" type="matrix" values="0 0 0 0 0 0 0 0 0 0 0 0 0 0 0 0 0 0 127 0" result="hardAlpha"/>
      <feOffset/>
      <feGaussianBlur stdDeviation="0.170743"/>
      <feComposite in2="hardAlpha" operator="out"/>
      <feColorMatrix type="matrix" values="0 0 0 0 0.592157 0 0 0 0 0.392157 0 0 0 0 1 0 0 0 1 0"/>
      <feBlend mode="normal" in2="BackgroundImageFix" result="effect1_dropShadow_2164_2166"/>
      <feBlend mode="normal" in="SourceGraphic" in2="effect1_dropShadow_2164_2166" result="shape"/>
    </filter>
    <linearGradient id="paint5_linear_2164_2166" x1="6.38037" y1="14.472" x2="6.69158" y2="14.4782" gradientUnits="userSpaceOnUse">
      <stop stop-color="#26A4FF"/>
      <stop offset="1" stop-color="#0D9AFF"/>
    </linearGradient>
    <filter id="filter5_d_2164_2166" x="11.7417" y="0.463378" width="1.56494" height="1.58484" filterUnits="userSpaceOnUse" color-interpolation-filters="sRGB">
      <feFlood flood-opacity="0" result="BackgroundImageFix"/>
      <feColorMatrix in="SourceAlpha" type="matrix" values="0 0 0 0 0 0 0 0 0 0 0 0 0 0 0 0 0 0 127 0" result="hardAlpha"/>
      <feOffset/>
      <feGaussianBlur stdDeviation="0.268311"/>
      <feComposite in2="hardAlpha" operator="out"/>
      <feColorMatrix type="matrix" values="0 0 0 0 0.592157 0 0 0 0 0.392157 0 0 0 0 1 0 0 0 1 0"/>
      <feBlend mode="normal" in2="BackgroundImageFix" result="effect1_dropShadow_2164_2166"/>
      <feBlend mode="normal" in="SourceGraphic" in2="effect1_dropShadow_2164_2166" result="shape"/>
    </filter>
    <linearGradient id="paint6_linear_2164_2166" x1="12.2929" y1="1.22933" x2="12.7819" y2="1.23921" gradientUnits="userSpaceOnUse">
      <stop stop-color="#26A4FF"/>
      <stop offset="1" stop-color="#0D9AFF"/>
    </linearGradient>
    <filter id="filter6_d_2164_2166" x="0.732341" y="9.55252" width="4.62028" height="4.71879" filterUnits="userSpaceOnUse" color-interpolation-filters="sRGB">
      <feFlood flood-opacity="0" result="BackgroundImageFix"/>
      <feColorMatrix in="SourceAlpha" type="matrix" values="0 0 0 0 0 0 0 0 0 0 0 0 0 0 0 0 0 0 127 0" result="hardAlpha"/>
      <feOffset dy="0.281606"/>
      <feGaussianBlur stdDeviation="0.540812"/>
      <feComposite in2="hardAlpha" operator="out"/>
      <feColorMatrix type="matrix" values="0 0 0 0 0.220722 0 0 0 0 0.210451 0 0 0 0 0.241667 0 0 0 0.6 0"/>
      <feBlend mode="normal" in2="BackgroundImageFix" result="effect1_dropShadow_2164_2166"/>
      <feBlend mode="normal" in="SourceGraphic" in2="effect1_dropShadow_2164_2166" result="shape"/>
    </filter>
    <linearGradient id="paint7_linear_2164_2166" x1="4.17747" y1="11.3173" x2="1.74065" y2="11.7212" gradientUnits="userSpaceOnUse">
      <stop stop-color="#26A4FF"/>
      <stop offset="1" stop-color="#0D9AFF"/>
    </linearGradient>
    <linearGradient id="paint8_linear_2164_2166" x1="1.27832" y1="2.04004" x2="26.2191" y2="26.0216" gradientUnits="userSpaceOnUse" gradientTransform="matrix(1, 0, 0, 1, 96.883938, 233.002411)">
      <stop stop-color="#868CFF"/>
      <stop offset="1" stop-color="#4318FF"/>
    </linearGradient>
    <linearGradient id="paint9_linear_2164_2166" x1="1.18252" y1="24.8028" x2="0.114127" y2="21.7888" gradientUnits="userSpaceOnUse" gradientTransform="matrix(1, 0, 0, 1, 96.883938, 233.002411)">
      <stop stop-color="#3F5FFF"/>
      <stop offset="1" stop-color="#3F5FFF" stop-opacity="0"/>
    </linearGradient>
    <filter id="filter7_f_2164_2166" x="0.216313" y="12.6314" width="27.0439" height="11.4993" filterUnits="userSpaceOnUse" color-interpolation-filters="sRGB">
      <feFlood flood-opacity="0" result="BackgroundImageFix"/>
      <feBlend mode="normal" in="SourceGraphic" in2="BackgroundImageFix" result="shape"/>
      <feGaussianBlur stdDeviation="0.127195" result="effect1_foregroundBlur_2164_2166"/>
    </filter>
    <linearGradient id="paint10_linear_2164_2166" x1="1.18252" y1="24.8025" x2="0.114127" y2="21.7886" gradientUnits="userSpaceOnUse">
      <stop stop-color="#1DA0FF"/>
      <stop offset="1" stop-color="#199FFF" stop-opacity="0.13"/>
    </linearGradient>
    <filter id="filter8_d_2164_2166" x="20.2885" y="2.26113" width="7.65252" height="7.78802" filterUnits="userSpaceOnUse" color-interpolation-filters="sRGB">
      <feFlood flood-opacity="0" result="BackgroundImageFix"/>
      <feColorMatrix in="SourceAlpha" type="matrix" values="0 0 0 0 0 0 0 0 0 0 0 0 0 0 0 0 0 0 127 0" result="hardAlpha"/>
      <feOffset dy="0.554677"/>
      <feGaussianBlur stdDeviation="1.06523"/>
      <feComposite in2="hardAlpha" operator="out"/>
      <feColorMatrix type="matrix" values="0 0 0 0 0.296824 0 0 0 0 0.244184 0 0 0 0 0.404167 0 0 0 0.6 0"/>
      <feBlend mode="normal" in2="BackgroundImageFix" result="effect1_dropShadow_2164_2166"/>
      <feBlend mode="normal" in="SourceGraphic" in2="effect1_dropShadow_2164_2166" result="shape"/>
    </filter>
    <linearGradient id="paint11_linear_2164_2166" x1="25.733" y1="5.65576" x2="22.3517" y2="5.25926" gradientUnits="userSpaceOnUse">
      <stop stop-color="#26A4FF"/>
      <stop offset="1" stop-color="#0D9AFF"/>
    </linearGradient>
    <linearGradient id="gradient-2-0" gradientUnits="userSpaceOnUse" x1="172.527" y1="238.505" x2="172.527" y2="257.14" xlink:href="#gradient-2"/>
    <linearGradient id="gradient-2" bx:pinned="true">
      <stop offset="0" style="stop-color: rgb(122, 119, 255);"/>
      <stop offset="1" style="stop-color: rgb(70, 29, 255);"/>
    </linearGradient>
  </defs>
  <g filter="url(#filter0_d_2164_2166)" transform="matrix(0.9999999999999999, 0, 0, 0.9999999999999999, 96.88394165039062, 233.00241088867188)">
    <path d="M31.4988 1.94103C31.5852 1.94103 31.6553 1.86815 31.6553 1.77825C31.6553 1.68836 31.5852 1.61548 31.4988 1.61548C31.4124 1.61548 31.3423 1.68836 31.3423 1.77825C31.3423 1.86815 31.4124 1.94103 31.4988 1.94103Z" fill="url(#paint1_linear_2164_2166)"/>
  </g>
  <g filter="url(#filter1_d_2164_2166)" transform="matrix(0.9999999999999999, 0, 0, 0.9999999999999999, 96.88394165039062, 233.00241088867188)">
    <path d="M5.68436 6.03804C5.90861 6.03804 6.09039 5.84898 6.09039 5.61576C6.09039 5.38254 5.90861 5.19348 5.68436 5.19348C5.46011 5.19348 5.27832 5.38254 5.27832 5.61576C5.27832 5.84898 5.46011 6.03804 5.68436 6.03804Z" fill="url(#paint2_linear_2164_2166)"/>
  </g>
  <g filter="url(#filter2_d_2164_2166)" transform="matrix(0.9999999999999999, 0, 0, 0.9999999999999999, 96.88394165039062, 233.00241088867188)">
    <path d="M1.50223 18.4063C1.72648 18.4063 1.90827 18.2173 1.90827 17.984C1.90827 17.7508 1.72648 17.5618 1.50223 17.5618C1.27798 17.5618 1.09619 17.7508 1.09619 17.984C1.09619 18.2173 1.27798 18.4063 1.50223 18.4063Z" fill="url(#paint3_linear_2164_2166)"/>
  </g>
  <g filter="url(#filter3_d_2164_2166)" transform="matrix(0.9999999999999999, 0, 0, 0.9999999999999999, 96.88394165039062, 233.00241088867188)">
    <path d="M25.5428 21.8016C25.767 21.8016 25.9488 21.6125 25.9488 21.3793C25.9488 21.1461 25.767 20.957 25.5428 20.957C25.3185 20.957 25.1367 21.1461 25.1367 21.3793C25.1367 21.6125 25.3185 21.8016 25.5428 21.8016Z" fill="url(#paint4_linear_2164_2166)"/>
  </g>
  <g filter="url(#filter4_d_2164_2166)" transform="matrix(0.9999999999999999, 0, 0, 0.9999999999999999, 96.88394165039062, 233.00241088867188)">
    <path d="M6.52761 14.6515C6.61405 14.6515 6.68412 14.5786 6.68412 14.4887C6.68412 14.3988 6.61405 14.3259 6.52761 14.3259C6.44117 14.3259 6.37109 14.3988 6.37109 14.4887C6.37109 14.5786 6.44117 14.6515 6.52761 14.6515Z" fill="url(#paint5_linear_2164_2166)"/>
  </g>
  <g filter="url(#filter5_d_2164_2166)" transform="matrix(0.9999999999999999, 0, 0, 0.9999999999999999, 96.88394165039062, 233.00241088867188)">
    <path d="M12.5243 1.51158C12.6601 1.51158 12.7702 1.39706 12.7702 1.25579C12.7702 1.11452 12.6601 1 12.5243 1C12.3884 1 12.2783 1.11452 12.2783 1.25579C12.2783 1.39706 12.3884 1.51158 12.5243 1.51158Z" fill="url(#paint6_linear_2164_2166)"/>
  </g>
  <g filter="url(#filter6_d_2164_2166)" transform="matrix(0.9999999999999999, 0, 0, 0.9999999999999999, 96.88394165039062, 233.00241088867188)">
    <path d="M3.22758 12.9061C3.14757 12.9187 3.07313 12.8679 3.04946 12.783C2.82758 12.0289 2.71089 11.9374 1.98526 11.965C1.90152 11.9675 1.8278 11.906 1.81574 11.8228C1.80352 11.7385 1.85569 11.6595 1.93609 11.6339C2.63013 11.4199 2.70486 11.3161 2.72206 10.5257C2.72411 10.438 2.77857 10.3669 2.85747 10.3545C2.93859 10.3417 3.01192 10.3929 3.03781 10.4773C3.2573 11.2306 3.37399 11.3221 4.09851 11.2946C4.18464 11.2929 4.25691 11.3525 4.26931 11.4379C4.28137 11.521 4.23141 11.5997 4.1488 11.6257C3.45397 11.8421 3.38019 11.9446 3.36521 12.7346C3.36111 12.8239 3.30537 12.894 3.22758 12.9061Z" fill="url(#paint7_linear_2164_2166)"/>
  </g>
  <path d="M 113.514 239.196 C 113.303 239.279 113.163 239.488 113.163 239.722 C 113.163 239.956 113.303 240.166 113.514 240.249 C 115.197 240.905 116.525 242.286 117.157 244.037 C 117.236 244.256 117.438 244.402 117.663 244.402 C 117.888 244.402 118.089 244.256 118.169 244.037 C 118.8 242.286 120.128 240.905 121.811 240.249 C 122.022 240.166 122.163 239.956 122.163 239.722 C 122.163 239.488 122.022 239.279 121.811 239.196 C 120.128 238.539 118.8 237.158 118.169 235.408 C 118.089 235.188 117.888 235.042 117.663 235.042 C 117.438 235.042 117.236 235.188 117.157 235.408 C 116.525 237.158 115.197 238.539 113.514 239.196 Z M 107.777 238.616 C 107.655 238.338 107.388 238.162 107.097 238.162 C 106.807 238.162 106.539 238.338 106.417 238.616 C 104.82 242.202 102.049 245.084 98.599 246.742 C 98.331 246.869 98.163 247.147 98.163 247.454 C 98.163 247.761 98.331 248.034 98.599 248.161 C 102.047 249.817 104.821 252.7 106.413 256.287 C 106.535 256.565 106.802 256.741 107.092 256.741 C 107.383 256.741 107.65 256.565 107.772 256.287 C 109.367 252.697 112.138 249.814 115.591 248.156 C 115.858 248.029 116.027 247.751 116.027 247.449 C 116.027 247.147 115.858 246.869 115.591 246.742 C 112.142 245.087 109.37 242.202 107.777 238.616 Z M 117.157 251.008 C 116.525 252.758 115.197 254.139 113.514 254.796 C 113.303 254.879 113.163 255.088 113.163 255.322 C 113.163 255.556 113.303 255.766 113.514 255.849 C 115.197 256.505 116.525 257.886 117.157 259.637 C 117.236 259.856 117.438 260.002 117.663 260.002 C 117.888 260.002 118.089 259.856 118.169 259.637 C 118.8 257.886 120.128 256.505 121.811 255.849 C 122.022 255.766 122.163 255.556 122.163 255.322 C 122.163 255.088 122.022 254.879 121.811 254.796 C 120.128 254.139 118.8 252.758 118.169 251.008 C 118.089 250.788 117.888 250.642 117.663 250.642 C 117.438 250.642 117.236 250.788 117.157 251.008 Z" fill="url(#paint8_linear_2164_2166)" transform="matrix(0.9999999999999999, 0, 0, 0.9999999999999999, 7.105427357601002e-15, 0)"/>
  <path d="M 109.856 249.088 C 102.692 251.675 97.228 254.801 97.651 256.069 C 98.074 257.336 104.225 256.266 111.389 253.679 C 118.553 251.091 124.018 247.966 123.594 246.698 C 123.171 245.43 117.02 246.5 109.856 249.088 Z" stroke="url(#paint9_linear_2164_2166)" stroke-width="0.549291" transform="matrix(0.9999999999999999, 0, 0, 0.9999999999999999, 7.105427357601002e-15, 0)"/>
  <g style="mix-blend-mode:screen" filter="url(#filter7_f_2164_2166)" transform="matrix(0.9999999999999999, 0, 0, 0.9999999999999999, 96.88394165039062, 233.00241088867188)">
    <path d="M12.9717 16.0855C5.80757 18.6731 0.34311 21.7985 0.76647 23.0662C1.18983 24.334 7.34069 23.2641 14.5048 20.6765C21.6689 18.0889 27.1334 14.9635 26.71 13.6957C26.2866 12.4279 20.1358 13.4979 12.9717 16.0855Z" stroke="url(#paint10_linear_2164_2166)" stroke-width="0.549291"/>
  </g>
  <g filter="url(#filter8_d_2164_2166)" transform="matrix(0.9999999999999999, 0, 0, 0.9999999999999999, 96.88394165039062, 233.00241088867188)">
    <path d="M23.872 7.36177C23.7616 7.34534 23.6827 7.24737 23.6838 7.12559C23.6787 6.03816 23.5595 5.86916 22.5907 5.60594C22.4792 5.57474 22.4053 5.46284 22.4211 5.34812C22.4372 5.23175 22.5363 5.14897 22.6522 5.14834C23.6504 5.15229 23.7888 5.046 24.1132 4.0094C24.1494 3.89443 24.2485 3.82298 24.3574 3.8392C24.4694 3.85589 24.5467 3.95363 24.5486 4.07593C24.551 5.16124 24.6701 5.33034 25.6374 5.59325C25.7518 5.62653 25.8245 5.735 25.8083 5.85294C25.7925 5.96765 25.6964 6.05096 25.5774 6.05116C24.5772 6.05012 24.4406 6.15496 24.1193 7.19204C24.0798 7.30821 23.9794 7.37778 23.872 7.36177Z" fill="url(#paint11_linear_2164_2166)"/>
  </g>
  <text style="fill: url('#gradient-2-0'); font-family: Arial, sans-serif; font-size: 16.8px; font-weight: 700; paint-order: fill; white-space: pre;" transform="matrix(1.3075530529022217, 0, 0, 1.3647150993347168, -48.42660522460937, -89.94136047363281)" x="136.071" y="253.602">SHOTIFY</text>
</svg>